<?xml version="1.0" standalone="no"?>
<!DOCTYPE svg PUBLIC "-//W3C//DTD SVG 20010904//EN"
 "http://www.w3.org/TR/2001/REC-SVG-20010904/DTD/svg10.dtd">
<svg version="1.0" xmlns="http://www.w3.org/2000/svg"
 width="600.000000pt" height="152.000000pt" viewBox="0 0 600.000000 152.000000"
 preserveAspectRatio="xMidYMid meet">

<g transform="translate(0.000000,152.000000) scale(0.100000,-0.100000)"
fill="#000000" stroke="none">
<path d="M1233 1075 c-97 -27 -175 -93 -217 -184 -29 -65 -29 -197 0 -262 94
-203 351 -259 514 -112 28 25 63 69 78 97 24 45 27 62 27 146 0 83 -3 101 -27
145 -32 62 -103 129 -163 155 -62 27 -149 33 -212 15z m115 -175 l20 -65 87
-5 88 -5 -70 -49 -70 -50 24 -74 c14 -40 23 -76 20 -79 -3 -3 -33 16 -66 42
-37 28 -66 43 -74 39 -6 -4 -36 -26 -65 -47 -29 -22 -55 -38 -57 -35 -3 3 6
38 20 78 14 40 25 74 25 75 0 1 -29 22 -65 46 -35 24 -65 47 -65 51 0 4 37 8
82 10 l81 3 25 73 c13 41 28 70 32 65 5 -4 17 -37 28 -73z"/>
<path d="M1856 989 c-92 -22 -147 -99 -147 -204 0 -77 24 -131 77 -172 63 -47
203 -43 249 7 17 19 17 21 0 40 -22 24 -32 25 -74 4 -89 -45 -178 47 -156 162
13 74 79 108 154 81 48 -17 62 -13 82 24 20 37 -107 77 -185 58z"/>
<path d="M3970 785 l0 -205 115 0 115 0 0 25 c0 24 -2 24 -82 27 l-83 3 -3
178 -2 177 -30 0 -30 0 0 -205z"/>
<path d="M2159 871 c-51 -17 -71 -34 -91 -78 -27 -62 -18 -122 26 -171 31 -33
39 -36 97 -39 50 -3 71 0 95 15 82 52 84 196 4 254 -30 21 -95 30 -131 19z
m83 -78 c23 -21 25 -99 2 -131 -18 -26 -65 -30 -84 -7 -21 26 -25 101 -6 130
19 29 60 33 88 8z"/>
<path d="M2475 863 c-20 -11 -30 -12 -33 -4 -2 6 -19 11 -38 11 l-34 0 0 -145
0 -145 40 0 40 0 0 103 c0 109 7 127 47 127 34 0 43 -29 43 -134 l0 -96 40 0
40 0 0 103 c0 110 6 127 47 127 33 0 43 -34 43 -141 l0 -89 40 0 40 0 0 110
c0 128 -12 162 -62 179 -39 14 -91 5 -114 -20 -16 -18 -17 -18 -46 6 -34 29
-52 30 -93 8z"/>
<path d="M2932 860 c-39 -24 -42 -24 -42 -5 0 10 -11 15 -35 15 l-35 0 0 -190
0 -190 40 0 40 0 0 55 c0 52 1 55 19 45 11 -5 38 -10 60 -10 76 0 129 91 111
189 -18 97 -85 135 -158 91z m57 -63 c35 -43 18 -142 -26 -153 -44 -11 -58 6
-61 77 -2 51 0 66 14 76 23 17 59 17 73 0z"/>
<path d="M3176 865 c-52 -18 -60 -28 -46 -55 9 -18 17 -20 38 -14 15 4 43 8
62 8 30 1 35 -2 38 -24 3 -24 -1 -27 -58 -38 -93 -20 -133 -76 -93 -130 25
-34 100 -43 140 -16 24 15 27 15 35 0 5 -9 22 -16 38 -16 l30 0 0 100 c0 123
-14 164 -64 185 -43 18 -69 18 -120 0z m94 -190 c0 -31 -42 -55 -68 -38 -24
15 -21 35 8 50 40 20 60 16 60 -12z"/>
<path d="M3500 864 c-22 -10 -36 -11 -38 -4 -2 5 -19 10 -38 10 l-34 0 0 -145
0 -145 40 0 40 0 0 103 c0 112 6 127 52 127 38 0 48 -29 48 -141 l0 -89 40 0
40 0 0 110 c0 127 -12 162 -61 179 -40 14 -46 14 -89 -5z"/>
<path d="M3649 848 c5 -13 30 -70 55 -127 25 -57 46 -110 46 -118 0 -7 -11
-36 -25 -64 l-26 -50 43 3 43 3 77 180 c43 99 78 184 78 188 0 5 -19 7 -42 5
l-41 -3 -24 -70 c-13 -38 -26 -77 -29 -85 -3 -9 -19 19 -38 70 l-31 85 -48 3
c-45 3 -47 2 -38 -20z"/>
<path d="M4275 861 c-45 -20 -69 -59 -73 -123 -8 -103 39 -158 133 -158 94 0
141 55 133 159 -4 53 -9 66 -35 93 -26 26 -41 32 -85 35 -29 1 -62 -1 -73 -6z
m110 -56 c21 -20 25 -34 25 -80 0 -46 -4 -60 -25 -80 -13 -14 -36 -25 -50 -25
-14 0 -37 11 -50 25 -21 20 -25 34 -25 80 0 46 4 60 25 80 13 14 36 25 50 25
14 0 37 -11 50 -25z"/>
<path d="M4521 844 c-38 -32 -43 -85 -11 -119 18 -20 19 -23 5 -35 -17 -14
-20 -51 -5 -66 7 -7 4 -16 -10 -29 -55 -49 -1 -115 95 -115 89 0 156 53 142
112 -8 30 -36 42 -122 55 -43 6 -60 12 -60 23 0 11 16 17 54 22 68 8 95 33 96
88 0 31 4 40 18 40 10 0 17 8 17 19 0 15 -11 19 -67 24 -106 10 -119 9 -152
-19z m123 -36 c9 -12 16 -28 16 -35 0 -41 -90 -61 -110 -24 -14 27 -13 47 6
65 23 24 70 20 88 -6z m17 -218 c10 -6 19 -19 19 -30 0 -25 -29 -40 -75 -40
-64 0 -96 35 -63 68 15 15 92 16 119 2z"/>
<path d="M4814 861 c-11 -5 -33 -23 -47 -41 -23 -26 -27 -41 -27 -92 0 -100
45 -148 139 -148 44 0 56 5 89 34 36 34 37 36 37 110 0 72 -2 77 -32 107 -26
27 -41 33 -85 36 -29 1 -62 -1 -74 -6z m111 -56 c21 -20 25 -34 25 -80 0 -46
-4 -60 -25 -80 -13 -14 -36 -25 -50 -25 -14 0 -37 11 -50 25 -21 20 -25 34
-25 80 0 46 4 60 25 80 13 14 36 25 50 25 14 0 37 -11 50 -25z"/>
</g>
</svg>
